<svg width="700" height="700" viewBox="0 0 700 700" fill="none" xmlns="http://www.w3.org/2000/svg">
<path d="M405.624 394.215C405.996 369.03 406.014 346.69 406.014 329.935C406.014 241.989 407.514 24.0105 356.014 24.0026C349.357 24.0016 343.667 26.766 338.795 31.3962" stroke="white" stroke-width="20.1758" stroke-linecap="round"/>
<path d="M405.596 306.775C405.967 331.871 405.985 354.133 405.985 370.828C405.985 458.462 407.479 675.669 356.162 675.661C349.528 675.66 343.859 672.904 339.004 668.289" stroke="white" stroke-width="20.1758" stroke-linecap="round"/>
<path d="M306.083 337.269C404.346 337.297 613.112 336.595 613.112 287.264C613.112 259.443 562.696 248.489 530.362 243.744" stroke="white" stroke-width="20.6128" stroke-linecap="round"/>
<path d="M392.934 338.26C294.701 338.288 85.9996 337.587 85.9996 288.271C85.9996 260.459 136.4 249.508 168.725 244.765" stroke="white" stroke-width="20.6128" stroke-linecap="round"/>
<path d="M462.694 189.665V559.335C462.694 570.381 453.74 579.335 442.694 579.335H250.294C239.248 579.335 230.294 570.381 230.294 559.335V189.665C230.294 178.619 239.248 169.665 250.294 169.665H442.694C453.74 169.665 462.694 178.619 462.694 189.665Z" stroke="white" stroke-width="18"/>
<path d="M341.394 501.6C353.702 501.6 363.696 511.594 363.696 523.902C363.696 536.211 353.702 546.204 341.394 546.204C329.085 546.204 319.092 536.211 319.092 523.902C319.092 511.594 329.085 501.6 341.394 501.6Z" fill="white"/>
</svg>
