<svg width="476" height="393" viewBox="0 0 476 393" fill="none" xmlns="http://www.w3.org/2000/svg">
<path d="M423.557 0H51.6533C23.244 0 0 23.244 0 51.6533V340.912C0 369.321 23.244 392.565 51.6533 392.565H423.557C451.967 392.565 475.211 369.321 475.211 340.912V51.6533C475.211 23.244 451.967 0 423.557 0ZM454.549 198.349L405.479 149.278C397.214 141.014 384.817 141.014 376.553 149.278L258.267 267.048L257.75 266.531L197.832 206.613C190.084 198.865 176.654 198.865 168.906 206.613L118.286 257.234C114.154 261.366 114.154 267.564 118.286 271.696C122.418 275.829 128.617 275.829 132.749 271.696L183.369 221.076L243.287 280.994L243.804 281.511L201.964 323.35C197.832 327.482 197.832 333.68 201.964 337.813C204.031 339.879 206.613 340.912 209.196 340.912C211.779 340.912 214.361 339.879 216.427 337.813L391.016 163.741L452.483 225.208C453 225.725 454.033 226.242 454.549 226.758V340.912C454.549 357.958 440.603 371.904 423.557 371.904H51.6533C34.6077 371.904 20.6613 357.958 20.6613 340.912V51.6533C20.6613 34.6077 34.6077 20.6613 51.6533 20.6613H423.557C440.603 20.6613 454.549 34.6077 454.549 51.6533V198.349Z" fill="white"/>
<path d="M93.4924 282.027L83.1617 292.358C79.0294 296.49 79.0294 302.689 83.1617 306.821C85.2278 308.887 87.8105 309.92 90.3932 309.92C92.9758 309.92 95.5585 308.887 97.6246 306.821L107.955 296.49C112.088 292.358 112.088 286.159 107.955 282.027C103.823 277.895 97.6246 277.895 93.4924 282.027Z" fill="white"/>
<path d="M113.637 61.9839C85.2279 61.9839 61.9839 85.2279 61.9839 113.637C61.9839 142.047 85.2279 165.291 113.637 165.291C142.047 165.291 165.291 142.047 165.291 113.637C165.291 85.2279 142.047 61.9839 113.637 61.9839ZM113.637 144.629C96.5916 144.629 82.6452 130.683 82.6452 113.637C82.6452 96.5916 96.5916 82.6452 113.637 82.6452C130.683 82.6452 144.629 96.5916 144.629 113.637C144.629 130.683 130.683 144.629 113.637 144.629Z" fill="white"/>
</svg>
