<svg id="Capa_1" data-name="Capa 1" xmlns="http://www.w3.org/2000/svg" viewBox="0 0 694.76 398.48"><defs><style>.cls-1{fill:#fff;}</style></defs><title>vector blanco-v2</title><path class="cls-1" d="M766.65,219.89c-4.36,7.88-8,14.57-11.75,21.19-7,12.27-14,24.53-21.15,36.68-.81,1.36-2.84,2.9-4.27,2.87-21.36-.55-42.71-1.33-64.07-2.12a39.1,39.1,0,0,1-5.41-1.06l-1.85,32.08H641.92a12.16,12.16,0,0,0-.53,2.36c-.41,10.41-.68,20.82-1.17,31.22q-1.55,32.77-3.29,65.53c-.58,10.9-1.57,21.79-2,32.69-.15,3.67-1.13,5.29-5,5q-24.1-1.69-48.22-3.17-11-.69-22-1.16c-10.58-.43-21.18-.64-31.76-1.14-21.49-1-43-2.16-64.45-3.26-13.6-.7-27.2-1.51-40.8-2.11-26.35-1.16-52.7-2.41-79.06-3.23-21.76-.67-43.53-.79-65.3-1.12q-38.6-.58-77.2-1.1-34.82-.51-69.63-1.08c-18.34-.32-36.68-.8-55-1-4.1,0-4.92-2-4.49-5.44.33-2.64.75-5.29.85-7.95.78-21.17,1.41-42.35,2.24-63.52.59-15,1.44-30.09,2.11-45.13.76-17,1.39-34.06,2.3-51.07a7.23,7.23,0,0,1,2.82-4.65c19.38-14.31,38.78-28.6,58.42-42.55,3.53-2.51,8.12-3.61,12.32-5.11q55.23-19.67,110.53-39.15c4.11-1.44,4.21-4,4.1-7.4-.52-15.85,6.35-28.27,19.6-36.14,6.86-4.08,15.41-5.43,23.3-7.64,17.33-4.85,34.74-9.47,52.11-14.17a14.57,14.57,0,0,1,2.1-.17c.53,5.87,1.43,11.66,1.26,17.41,0,1.29-3.66,2.92-5.88,3.63-18,5.75-36.11,11.27-54.14,17-8.59,2.71-9.38,4.5-6.87,14.08q19.43-5.75,38.86-11.49c12-3.55,23.95-7,35.85-10.8,2-.64,4.52-2.13,5.29-3.89,5.35-12.3,15.87-17.31,27.75-20.75,18.5-5.36,37-10.85,55.43-16.27,2.54-.74,5.12-1.36,8.42-2.23v14.7c6.64-1.88,13.15-3.76,19.67-5.58C505.8,89.41,521.1,84.84,536.58,81a118.21,118.21,0,0,1,22.25-2.87,283.54,283.54,0,0,1,28.88,0c5.47.29,8.76-1.29,10.33-7.37-2.08,0-4,.08-5.85,0-6.8-.34-13.61-.61-20.39-1.21-1.16-.1-3.12-1.73-3.11-2.62a135.45,135.45,0,0,1,1.21-17.1c.13-.9,3.11-2.05,4.71-2,8.92.47,17.81,1.49,26.73,1.95,11.3.57,22.62.66,33.92,1.17,22.21,1,44.41,2.14,66.61,3.26,13.24.67,26.48,1.35,39.72,2.15,6,.37,12.08,1,18.43,1.59v19.2c-5.69,0-11.38.24-17-.05-10-.51-20-1.49-30-2-11.12-.55-22.26-.7-33.38-1.19-13.43-.6-26.84-1.49-40.27-2-5.21-.21-9.21,2.2-12.82,8.25H640c2,0,4,0,6,0,6.36.11,7.5,1,7.2,7.15-.92,18.79-2.1,37.56-3.14,56.34-.42,7.52-.82,15-1.11,22.57-.43,11.13-.66,22.26-1.15,33.38-.2,4.59-.86,9.16-1.37,14.36ZM495.5,283.61l1.13-10.15a52.17,52.17,0,0,0-7.17-1.3c-12.2-.47-24.41-.77-36.61-1.15-1.07,0-2.13-.27-3.2-.32-11.08-.61-22.17-1.24-33.26-1.77-4.58-.22-3.29,3.37-3.32,5.77s-1.15,5.65,3.4,5.76c9.5.22,19,.6,28.5,1.09,11.8.61,23.58,1.48,35.38,2.05C485.34,283.82,490.34,283.61,495.5,283.61Z" transform="translate(-71.89 -47.9)"/></svg>